<?xml version="1.0" encoding="UTF-8"?>
<svg width="351px" height="542px" viewBox="0 0 351 542" version="1.1" xmlns="http://www.w3.org/2000/svg" xmlns:xlink="http://www.w3.org/1999/xlink">
    <title>Group</title>
    <defs>
        <linearGradient x1="28.6828403%" y1="-3.32130238%" x2="53.2025017%" y2="85.7725072%" id="linearGradient-1">
            <stop stop-color="#41D1FF" offset="0%"></stop>
            <stop stop-color="#BD34FE" offset="100%"></stop>
        </linearGradient>
        <linearGradient x1="43.3760053%" y1="2.24179788%" x2="50.3158848%" y2="89.0299051%" id="linearGradient-2">
            <stop stop-color="#FFEA83" offset="0%"></stop>
            <stop stop-color="#FFDD35" offset="8.33333%"></stop>
            <stop stop-color="#FFA800" offset="100%"></stop>
        </linearGradient>
    </defs>
    <g id="Page-1" stroke="none" stroke-width="1" fill="none" fill-rule="evenodd">
        <g id="Group" transform="translate(-0.0039, 0)">
            <path d="M190.563701,0 C190.551551,0.389088184 190.540926,0.781131121 190.531823,1.17612881 L191.02033,1 C190.279396,24.674046 195.19408,59.290006 205.764381,104.847882 C208.618364,117.148508 212.877055,128.115614 218.282656,138.473372 L218.935837,139.706601 C225.115904,151.139469 232.689718,161.881667 241.303152,172.930234 L241.939646,173.119223 L251.733646,185.480408 C251.702527,185.593103 251.671514,185.705904 251.640605,185.818811 C251.859076,186.085836 252.095591,186.374656 252.349413,186.684507 L252.335426,186.908742 C274.807135,214.283486 302.464156,245.628426 330.434304,294.629467 C342.72177,312.427521 350.635442,330.09341 350.953977,347.229313 C351.009865,350.23586 351.01894,353.232433 350.980551,356.216822 C351.001649,357.830434 350.985443,359.449219 350.930772,361.073184 C350.969388,362.276877 350.99121,363.488693 350.999756,364.706579 C351.004651,364.993128 351.005491,365.278964 351.001161,365.564823 C351.109282,420.944207 323.876328,488.556561 266.761892,517.26545 C168.664322,566.574753 93.9147811,535.440867 48.6428901,482.688886 C13.2694314,441.470814 -0.031378623,396.333967 0.00395131334,350.710308 C0.0017446182,349.567914 0.00724545235,348.424475 0.0209886955,347.280771 C-0.319962021,320.835388 3.4929557,295.238439 11.4641429,270.489151 C12.5892102,266.995995 13.7404357,263.507445 14.9178193,260.023501 C23.1835997,233.152576 34.1642148,206.926803 45.9683875,182.09336 C47.6732845,178.391357 49.4085345,174.692969 51.1745617,171 C51.1599337,171.140491 51.1453649,171.280905 51.1308555,171.421242 C51.3079811,171.058299 51.4853416,170.698089 51.6628161,170.338209 L51.6856479,170.225194 C54.128186,165.165443 57.2428404,159.025647 61.0296117,151.805808 C66.2795043,141.642054 71.5353019,131.798731 76.6456776,122.332902 C113.055064,54.892671 151.027744,14.1150369 190.563701,0 Z" id="Combined-Shape" fill="url(#linearGradient-1)"></path>
            <path d="M267.201338,108.548256 L101.274769,141.060915 C98.5475892,141.595261 96.528404,143.906418 96.3638959,146.680025 L86.1570795,319.064575 C85.9170195,323.124879 89.6458708,326.276124 93.6086891,325.36219 L139.805013,314.700844 C144.127312,313.704046 148.032857,317.510887 147.144513,321.857557 L133.41966,389.065836 C132.495977,393.589201 136.742724,397.45697 141.160073,396.115315 L169.693096,387.446345 C174.116537,386.103471 178.36694,389.982207 177.431072,394.509228 L155.619729,500.078368 C154.254921,506.681847 163.038437,510.282747 166.701485,504.62123 L169.148391,500.83998 L304.354588,231.012505 C306.618707,226.494624 302.714381,221.343082 297.752328,222.300641 L250.200944,231.478002 C245.732416,232.339537 241.93045,228.178091 243.191679,223.806195 L274.227663,116.216152 C275.490111,111.836884 271.67474,107.671831 267.201338,108.548256 Z" id="Path-Copy" fill="url(#linearGradient-2)" fill-rule="nonzero"></path>
        </g>
    </g>
</svg>